<mxfile host="app.diagrams.net" agent="Mozilla/5.0 (Windows NT 10.0; Win64; x64) AppleWebKit/537.36 (KHTML, like Gecko) Chrome/133.0.0.0 Safari/537.36" version="26.0.16">
  <diagram id="C5RBs43oDa-KdzZeNtuy" name="Page-1">
    <mxGraphModel dx="794" dy="682" grid="1" gridSize="10" guides="1" tooltips="1" connect="1" arrows="1" fold="1" page="1" pageScale="1" pageWidth="827" pageHeight="1169" math="0" shadow="0">
      <root>
        <mxCell id="WIyWlLk6GJQsqaUBKTNV-0" />
        <mxCell id="WIyWlLk6GJQsqaUBKTNV-1" parent="WIyWlLk6GJQsqaUBKTNV-0" />
        <mxCell id="KLWebVzU2DsucjYkV6lf-1" style="edgeStyle=orthogonalEdgeStyle;rounded=0;orthogonalLoop=1;jettySize=auto;html=1;" edge="1" parent="WIyWlLk6GJQsqaUBKTNV-1" source="KLWebVzU2DsucjYkV6lf-0" target="KLWebVzU2DsucjYkV6lf-2">
          <mxGeometry relative="1" as="geometry">
            <mxPoint x="155" y="150" as="targetPoint" />
          </mxGeometry>
        </mxCell>
        <mxCell id="KLWebVzU2DsucjYkV6lf-0" value="Start&lt;div&gt;&lt;br&gt;&lt;/div&gt;" style="strokeWidth=2;html=1;shape=mxgraph.flowchart.start_2;whiteSpace=wrap;" vertex="1" parent="WIyWlLk6GJQsqaUBKTNV-1">
          <mxGeometry x="105" y="10" width="100" height="80" as="geometry" />
        </mxCell>
        <mxCell id="KLWebVzU2DsucjYkV6lf-3" style="edgeStyle=orthogonalEdgeStyle;rounded=0;orthogonalLoop=1;jettySize=auto;html=1;" edge="1" parent="WIyWlLk6GJQsqaUBKTNV-1" source="KLWebVzU2DsucjYkV6lf-2">
          <mxGeometry relative="1" as="geometry">
            <mxPoint x="155" y="230" as="targetPoint" />
          </mxGeometry>
        </mxCell>
        <mxCell id="KLWebVzU2DsucjYkV6lf-2" value="Welcome Message" style="strokeWidth=2;html=1;shape=mxgraph.flowchart.display;whiteSpace=wrap;" vertex="1" parent="WIyWlLk6GJQsqaUBKTNV-1">
          <mxGeometry x="105" y="120" width="100" height="60" as="geometry" />
        </mxCell>
        <mxCell id="KLWebVzU2DsucjYkV6lf-5" style="edgeStyle=orthogonalEdgeStyle;rounded=0;orthogonalLoop=1;jettySize=auto;html=1;entryX=0.5;entryY=0;entryDx=0;entryDy=0;entryPerimeter=0;" edge="1" parent="WIyWlLk6GJQsqaUBKTNV-1" target="KLWebVzU2DsucjYkV6lf-7">
          <mxGeometry relative="1" as="geometry">
            <mxPoint x="155" y="320" as="targetPoint" />
            <mxPoint x="155" y="290" as="sourcePoint" />
          </mxGeometry>
        </mxCell>
        <mxCell id="KLWebVzU2DsucjYkV6lf-10" style="edgeStyle=orthogonalEdgeStyle;rounded=0;orthogonalLoop=1;jettySize=auto;html=1;exitX=1;exitY=0.5;exitDx=0;exitDy=0;exitPerimeter=0;" edge="1" parent="WIyWlLk6GJQsqaUBKTNV-1" source="KLWebVzU2DsucjYkV6lf-7">
          <mxGeometry relative="1" as="geometry">
            <mxPoint x="315" y="405" as="targetPoint" />
          </mxGeometry>
        </mxCell>
        <mxCell id="KLWebVzU2DsucjYkV6lf-23" value="Trust" style="edgeLabel;html=1;align=center;verticalAlign=middle;resizable=0;points=[];" vertex="1" connectable="0" parent="KLWebVzU2DsucjYkV6lf-10">
          <mxGeometry x="-0.1345" y="-1" relative="1" as="geometry">
            <mxPoint as="offset" />
          </mxGeometry>
        </mxCell>
        <mxCell id="KLWebVzU2DsucjYkV6lf-16" style="edgeStyle=orthogonalEdgeStyle;rounded=0;orthogonalLoop=1;jettySize=auto;html=1;exitX=0.5;exitY=1;exitDx=0;exitDy=0;exitPerimeter=0;" edge="1" parent="WIyWlLk6GJQsqaUBKTNV-1" source="KLWebVzU2DsucjYkV6lf-7">
          <mxGeometry relative="1" as="geometry">
            <mxPoint x="155" y="560" as="targetPoint" />
          </mxGeometry>
        </mxCell>
        <mxCell id="KLWebVzU2DsucjYkV6lf-24" value="False" style="edgeLabel;html=1;align=center;verticalAlign=middle;resizable=0;points=[];" vertex="1" connectable="0" parent="KLWebVzU2DsucjYkV6lf-16">
          <mxGeometry x="-0.1381" y="-1" relative="1" as="geometry">
            <mxPoint as="offset" />
          </mxGeometry>
        </mxCell>
        <mxCell id="KLWebVzU2DsucjYkV6lf-7" value="if number is multiple of 3" style="strokeWidth=2;html=1;shape=mxgraph.flowchart.decision;whiteSpace=wrap;" vertex="1" parent="WIyWlLk6GJQsqaUBKTNV-1">
          <mxGeometry x="80" y="340" width="150" height="130" as="geometry" />
        </mxCell>
        <mxCell id="KLWebVzU2DsucjYkV6lf-8" value="Enter a number" style="shape=parallelogram;html=1;strokeWidth=2;perimeter=parallelogramPerimeter;whiteSpace=wrap;rounded=1;arcSize=12;size=0.23;" vertex="1" parent="WIyWlLk6GJQsqaUBKTNV-1">
          <mxGeometry x="95" y="230" width="120" height="60" as="geometry" />
        </mxCell>
        <mxCell id="KLWebVzU2DsucjYkV6lf-26" style="edgeStyle=orthogonalEdgeStyle;rounded=0;orthogonalLoop=1;jettySize=auto;html=1;" edge="1" parent="WIyWlLk6GJQsqaUBKTNV-1" source="KLWebVzU2DsucjYkV6lf-13">
          <mxGeometry relative="1" as="geometry">
            <mxPoint x="310" y="755" as="targetPoint" />
          </mxGeometry>
        </mxCell>
        <mxCell id="KLWebVzU2DsucjYkV6lf-40" value="Trust" style="edgeLabel;html=1;align=center;verticalAlign=middle;resizable=0;points=[];" vertex="1" connectable="0" parent="KLWebVzU2DsucjYkV6lf-26">
          <mxGeometry x="-0.1579" y="-2" relative="1" as="geometry">
            <mxPoint as="offset" />
          </mxGeometry>
        </mxCell>
        <mxCell id="KLWebVzU2DsucjYkV6lf-28" style="edgeStyle=orthogonalEdgeStyle;rounded=0;orthogonalLoop=1;jettySize=auto;html=1;" edge="1" parent="WIyWlLk6GJQsqaUBKTNV-1" source="KLWebVzU2DsucjYkV6lf-13">
          <mxGeometry relative="1" as="geometry">
            <mxPoint x="155" y="910" as="targetPoint" />
          </mxGeometry>
        </mxCell>
        <mxCell id="KLWebVzU2DsucjYkV6lf-41" value="False" style="edgeLabel;html=1;align=center;verticalAlign=middle;resizable=0;points=[];" vertex="1" connectable="0" parent="KLWebVzU2DsucjYkV6lf-28">
          <mxGeometry x="-0.0498" y="1" relative="1" as="geometry">
            <mxPoint as="offset" />
          </mxGeometry>
        </mxCell>
        <mxCell id="KLWebVzU2DsucjYkV6lf-13" value="if number is multiple of 5" style="strokeWidth=2;html=1;shape=mxgraph.flowchart.decision;whiteSpace=wrap;" vertex="1" parent="WIyWlLk6GJQsqaUBKTNV-1">
          <mxGeometry x="85" y="690" width="140" height="130" as="geometry" />
        </mxCell>
        <mxCell id="KLWebVzU2DsucjYkV6lf-15" value="&amp;nbsp;Print&amp;nbsp;&quot;Fizz&quot;" style="strokeWidth=2;html=1;shape=mxgraph.flowchart.display;whiteSpace=wrap;" vertex="1" parent="WIyWlLk6GJQsqaUBKTNV-1">
          <mxGeometry x="315" y="365" width="120" height="80" as="geometry" />
        </mxCell>
        <mxCell id="KLWebVzU2DsucjYkV6lf-17" value="Print number" style="strokeWidth=2;html=1;shape=mxgraph.flowchart.display;whiteSpace=wrap;" vertex="1" parent="WIyWlLk6GJQsqaUBKTNV-1">
          <mxGeometry x="95" y="560" width="120" height="80" as="geometry" />
        </mxCell>
        <mxCell id="KLWebVzU2DsucjYkV6lf-25" style="edgeStyle=orthogonalEdgeStyle;rounded=0;orthogonalLoop=1;jettySize=auto;html=1;exitX=0.5;exitY=1;exitDx=0;exitDy=0;exitPerimeter=0;entryX=0.5;entryY=0;entryDx=0;entryDy=0;entryPerimeter=0;" edge="1" parent="WIyWlLk6GJQsqaUBKTNV-1" source="KLWebVzU2DsucjYkV6lf-17" target="KLWebVzU2DsucjYkV6lf-13">
          <mxGeometry relative="1" as="geometry" />
        </mxCell>
        <mxCell id="KLWebVzU2DsucjYkV6lf-29" value="Print Buzz" style="strokeWidth=2;html=1;shape=mxgraph.flowchart.display;whiteSpace=wrap;" vertex="1" parent="WIyWlLk6GJQsqaUBKTNV-1">
          <mxGeometry x="315" y="725" width="125" height="65" as="geometry" />
        </mxCell>
        <mxCell id="KLWebVzU2DsucjYkV6lf-31" style="edgeStyle=orthogonalEdgeStyle;rounded=0;orthogonalLoop=1;jettySize=auto;html=1;exitX=0.5;exitY=1;exitDx=0;exitDy=0;exitPerimeter=0;" edge="1" parent="WIyWlLk6GJQsqaUBKTNV-1" source="KLWebVzU2DsucjYkV6lf-30">
          <mxGeometry relative="1" as="geometry">
            <mxPoint x="155" y="1050" as="targetPoint" />
          </mxGeometry>
        </mxCell>
        <mxCell id="KLWebVzU2DsucjYkV6lf-30" value="Print number" style="strokeWidth=2;html=1;shape=mxgraph.flowchart.display;whiteSpace=wrap;" vertex="1" parent="WIyWlLk6GJQsqaUBKTNV-1">
          <mxGeometry x="90" y="910" width="130" height="70" as="geometry" />
        </mxCell>
        <mxCell id="KLWebVzU2DsucjYkV6lf-34" style="edgeStyle=orthogonalEdgeStyle;rounded=0;orthogonalLoop=1;jettySize=auto;html=1;exitX=1;exitY=0.5;exitDx=0;exitDy=0;exitPerimeter=0;" edge="1" parent="WIyWlLk6GJQsqaUBKTNV-1" source="KLWebVzU2DsucjYkV6lf-32">
          <mxGeometry relative="1" as="geometry">
            <mxPoint x="320" y="1120" as="targetPoint" />
          </mxGeometry>
        </mxCell>
        <mxCell id="KLWebVzU2DsucjYkV6lf-42" value="Trust" style="edgeLabel;html=1;align=center;verticalAlign=middle;resizable=0;points=[];" vertex="1" connectable="0" parent="KLWebVzU2DsucjYkV6lf-34">
          <mxGeometry x="-0.1111" y="-1" relative="1" as="geometry">
            <mxPoint as="offset" />
          </mxGeometry>
        </mxCell>
        <mxCell id="KLWebVzU2DsucjYkV6lf-35" style="edgeStyle=orthogonalEdgeStyle;rounded=0;orthogonalLoop=1;jettySize=auto;html=1;exitX=0.5;exitY=1;exitDx=0;exitDy=0;exitPerimeter=0;" edge="1" parent="WIyWlLk6GJQsqaUBKTNV-1" source="KLWebVzU2DsucjYkV6lf-32">
          <mxGeometry relative="1" as="geometry">
            <mxPoint x="155" y="1260" as="targetPoint" />
          </mxGeometry>
        </mxCell>
        <mxCell id="KLWebVzU2DsucjYkV6lf-43" value="False" style="edgeLabel;html=1;align=center;verticalAlign=middle;resizable=0;points=[];" vertex="1" connectable="0" parent="KLWebVzU2DsucjYkV6lf-35">
          <mxGeometry x="-0.0355" y="-1" relative="1" as="geometry">
            <mxPoint as="offset" />
          </mxGeometry>
        </mxCell>
        <mxCell id="KLWebVzU2DsucjYkV6lf-32" value="&lt;font style=&quot;font-size: 10px;&quot;&gt;if the numbers is multiple of 3 y 5&amp;nbsp;&lt;/font&gt;" style="strokeWidth=2;html=1;shape=mxgraph.flowchart.decision;whiteSpace=wrap;" vertex="1" parent="WIyWlLk6GJQsqaUBKTNV-1">
          <mxGeometry x="75" y="1050" width="160" height="140" as="geometry" />
        </mxCell>
        <mxCell id="KLWebVzU2DsucjYkV6lf-36" value="FizzBuzz" style="strokeWidth=2;html=1;shape=mxgraph.flowchart.display;whiteSpace=wrap;" vertex="1" parent="WIyWlLk6GJQsqaUBKTNV-1">
          <mxGeometry x="325" y="1080" width="105" height="80" as="geometry" />
        </mxCell>
        <mxCell id="KLWebVzU2DsucjYkV6lf-38" style="edgeStyle=orthogonalEdgeStyle;rounded=0;orthogonalLoop=1;jettySize=auto;html=1;exitX=0.5;exitY=1;exitDx=0;exitDy=0;exitPerimeter=0;" edge="1" parent="WIyWlLk6GJQsqaUBKTNV-1" source="KLWebVzU2DsucjYkV6lf-37">
          <mxGeometry relative="1" as="geometry">
            <mxPoint x="155" y="1410" as="targetPoint" />
          </mxGeometry>
        </mxCell>
        <mxCell id="KLWebVzU2DsucjYkV6lf-37" value="Print number" style="strokeWidth=2;html=1;shape=mxgraph.flowchart.display;whiteSpace=wrap;" vertex="1" parent="WIyWlLk6GJQsqaUBKTNV-1">
          <mxGeometry x="95" y="1260" width="120" height="80" as="geometry" />
        </mxCell>
        <mxCell id="KLWebVzU2DsucjYkV6lf-39" value="End" style="strokeWidth=2;html=1;shape=mxgraph.flowchart.terminator;whiteSpace=wrap;" vertex="1" parent="WIyWlLk6GJQsqaUBKTNV-1">
          <mxGeometry x="105" y="1410" width="100" height="80" as="geometry" />
        </mxCell>
      </root>
    </mxGraphModel>
  </diagram>
</mxfile>
